<mxfile host="app.diagrams.net" modified="2024-02-03T07:15:51.820Z" agent="Mozilla/5.0 (Windows NT 10.0; Win64; x64) AppleWebKit/537.36 (KHTML, like Gecko) Chrome/121.0.0.0 Safari/537.36" etag="9xlKcfttf3lolxL2alVA" version="23.1.1" type="github">
  <diagram name="Page-1" id="5SFYM8M0t-itLqug8rAs">
    <mxGraphModel dx="1327" dy="10813" grid="1" gridSize="10" guides="1" tooltips="1" connect="1" arrows="1" fold="1" page="1" pageScale="1" pageWidth="10000" pageHeight="10000" math="0" shadow="0">
      <root>
        <mxCell id="0" />
        <mxCell id="1" parent="0" />
        <mxCell id="5QVgmq1AskSANUEn1EZR-24" style="edgeStyle=orthogonalEdgeStyle;rounded=0;orthogonalLoop=1;jettySize=auto;html=1;entryX=0.5;entryY=0;entryDx=0;entryDy=0;" edge="1" parent="1" source="5QVgmq1AskSANUEn1EZR-2" target="5QVgmq1AskSANUEn1EZR-4">
          <mxGeometry relative="1" as="geometry">
            <Array as="points">
              <mxPoint x="569" y="-120" />
              <mxPoint x="171" y="-120" />
            </Array>
          </mxGeometry>
        </mxCell>
        <mxCell id="5QVgmq1AskSANUEn1EZR-25" value="否&lt;br&gt;" style="edgeLabel;html=1;align=center;verticalAlign=middle;resizable=0;points=[];" vertex="1" connectable="0" parent="5QVgmq1AskSANUEn1EZR-24">
          <mxGeometry x="-0.2832" y="1" relative="1" as="geometry">
            <mxPoint x="-1" as="offset" />
          </mxGeometry>
        </mxCell>
        <mxCell id="5QVgmq1AskSANUEn1EZR-26" style="edgeStyle=orthogonalEdgeStyle;rounded=0;orthogonalLoop=1;jettySize=auto;html=1;entryX=0.25;entryY=0;entryDx=0;entryDy=0;" edge="1" parent="1" source="5QVgmq1AskSANUEn1EZR-2" target="5QVgmq1AskSANUEn1EZR-3">
          <mxGeometry relative="1" as="geometry" />
        </mxCell>
        <mxCell id="5QVgmq1AskSANUEn1EZR-27" value="是" style="edgeLabel;html=1;align=center;verticalAlign=middle;resizable=0;points=[];" vertex="1" connectable="0" parent="5QVgmq1AskSANUEn1EZR-26">
          <mxGeometry x="0.3345" y="1" relative="1" as="geometry">
            <mxPoint as="offset" />
          </mxGeometry>
        </mxCell>
        <mxCell id="5QVgmq1AskSANUEn1EZR-2" value="年终奖发放标记是否为空?" style="whiteSpace=wrap;strokeWidth=2;" vertex="1" parent="1">
          <mxGeometry x="470" y="-210" width="197" height="34" as="geometry" />
        </mxCell>
        <mxCell id="5QVgmq1AskSANUEn1EZR-3" value="计算延期支付奖金1: ROUND((综合绩效奖金年终发放+综合绩效奖金调拨发放)*当年度延期支付奖金比例*工作月数当年/12, 0)" style="whiteSpace=wrap;strokeWidth=2;" vertex="1" parent="1">
          <mxGeometry x="671" y="-60" width="892" height="34" as="geometry" />
        </mxCell>
        <mxCell id="5QVgmq1AskSANUEn1EZR-18" style="edgeStyle=orthogonalEdgeStyle;rounded=0;orthogonalLoop=1;jettySize=auto;html=1;entryX=0;entryY=0.25;entryDx=0;entryDy=0;" edge="1" parent="1" source="5QVgmq1AskSANUEn1EZR-4" target="5QVgmq1AskSANUEn1EZR-8">
          <mxGeometry relative="1" as="geometry">
            <Array as="points">
              <mxPoint x="171" y="347" />
              <mxPoint x="760" y="347" />
              <mxPoint x="760" y="450" />
              <mxPoint x="1499" y="450" />
            </Array>
          </mxGeometry>
        </mxCell>
        <mxCell id="5QVgmq1AskSANUEn1EZR-4" value="ReturnBlank" style="whiteSpace=wrap;strokeWidth=2;" vertex="1" parent="1">
          <mxGeometry x="120" y="46" width="102" height="34" as="geometry" />
        </mxCell>
        <mxCell id="5QVgmq1AskSANUEn1EZR-5" value="延期支付奖金 &lt; 7000 且 当年度延期支付奖金比例 &gt; 0?" style="whiteSpace=wrap;strokeWidth=2;" vertex="1" parent="1">
          <mxGeometry x="1010" y="50" width="440" height="34" as="geometry" />
        </mxCell>
        <mxCell id="5QVgmq1AskSANUEn1EZR-28" style="edgeStyle=orthogonalEdgeStyle;rounded=0;orthogonalLoop=1;jettySize=auto;html=1;entryX=0.75;entryY=0;entryDx=0;entryDy=0;" edge="1" parent="1" source="5QVgmq1AskSANUEn1EZR-6" target="5QVgmq1AskSANUEn1EZR-8">
          <mxGeometry relative="1" as="geometry" />
        </mxCell>
        <mxCell id="5QVgmq1AskSANUEn1EZR-6" value="使用固定公式计算延期支付奖金2: ROUND(7000 * 工作月数当年 / 12, 0)" style="whiteSpace=wrap;strokeWidth=2;" vertex="1" parent="1">
          <mxGeometry x="1410" y="240" width="519" height="34" as="geometry" />
        </mxCell>
        <mxCell id="5QVgmq1AskSANUEn1EZR-30" style="edgeStyle=orthogonalEdgeStyle;rounded=0;orthogonalLoop=1;jettySize=auto;html=1;entryX=0.25;entryY=0;entryDx=0;entryDy=0;" edge="1" parent="1" source="5QVgmq1AskSANUEn1EZR-7" target="5QVgmq1AskSANUEn1EZR-8">
          <mxGeometry relative="1" as="geometry">
            <Array as="points">
              <mxPoint x="1113" y="360" />
              <mxPoint x="1520" y="360" />
            </Array>
          </mxGeometry>
        </mxCell>
        <mxCell id="5QVgmq1AskSANUEn1EZR-7" value="返回已计算的延期支付奖金1 " style="whiteSpace=wrap;strokeWidth=2;" vertex="1" parent="1">
          <mxGeometry x="976.5" y="240" width="273" height="34" as="geometry" />
        </mxCell>
        <mxCell id="5QVgmq1AskSANUEn1EZR-8" value="End" style="whiteSpace=wrap;strokeWidth=2;" vertex="1" parent="1">
          <mxGeometry x="1510" y="440" width="41" height="34" as="geometry" />
        </mxCell>
        <mxCell id="5QVgmq1AskSANUEn1EZR-9" value="" style="curved=1;startArrow=none;endArrow=block;entryX=0.5;entryY=0;rounded=0;entryDx=0;entryDy=0;" edge="1" parent="1" source="5QVgmq1AskSANUEn1EZR-1" target="5QVgmq1AskSANUEn1EZR-2">
          <mxGeometry relative="1" as="geometry">
            <Array as="points" />
            <mxPoint x="585" y="-290" as="sourcePoint" />
          </mxGeometry>
        </mxCell>
        <mxCell id="5QVgmq1AskSANUEn1EZR-12" value="" style="curved=1;startArrow=none;endArrow=block;exitX=0.627;exitY=0.97;rounded=0;exitDx=0;exitDy=0;exitPerimeter=0;" edge="1" parent="1" source="5QVgmq1AskSANUEn1EZR-3" target="5QVgmq1AskSANUEn1EZR-5">
          <mxGeometry relative="1" as="geometry">
            <Array as="points" />
          </mxGeometry>
        </mxCell>
        <mxCell id="5QVgmq1AskSANUEn1EZR-19" style="edgeStyle=orthogonalEdgeStyle;rounded=0;orthogonalLoop=1;jettySize=auto;html=1;entryX=0.537;entryY=-0.029;entryDx=0;entryDy=0;entryPerimeter=0;" edge="1" parent="1" source="5QVgmq1AskSANUEn1EZR-5" target="5QVgmq1AskSANUEn1EZR-7">
          <mxGeometry relative="1" as="geometry" />
        </mxCell>
        <mxCell id="5QVgmq1AskSANUEn1EZR-20" value="&lt;i&gt;否&lt;br&gt;&lt;br&gt;&lt;/i&gt;" style="edgeLabel;html=1;align=center;verticalAlign=middle;resizable=0;points=[];" vertex="1" connectable="0" parent="5QVgmq1AskSANUEn1EZR-19">
          <mxGeometry x="-0.0693" y="1" relative="1" as="geometry">
            <mxPoint as="offset" />
          </mxGeometry>
        </mxCell>
        <mxCell id="5QVgmq1AskSANUEn1EZR-21" style="edgeStyle=orthogonalEdgeStyle;rounded=0;orthogonalLoop=1;jettySize=auto;html=1;entryX=0.272;entryY=0.029;entryDx=0;entryDy=0;entryPerimeter=0;" edge="1" parent="1" source="5QVgmq1AskSANUEn1EZR-5" target="5QVgmq1AskSANUEn1EZR-6">
          <mxGeometry relative="1" as="geometry" />
        </mxCell>
        <mxCell id="5QVgmq1AskSANUEn1EZR-22" value="是" style="edgeLabel;html=1;align=center;verticalAlign=middle;resizable=0;points=[];" vertex="1" connectable="0" parent="5QVgmq1AskSANUEn1EZR-21">
          <mxGeometry x="0.0609" y="6" relative="1" as="geometry">
            <mxPoint as="offset" />
          </mxGeometry>
        </mxCell>
        <mxCell id="5QVgmq1AskSANUEn1EZR-29" value="" style="curved=1;startArrow=none;endArrow=block;entryX=0.5;entryY=0;rounded=0;entryDx=0;entryDy=0;" edge="1" parent="1" target="5QVgmq1AskSANUEn1EZR-1">
          <mxGeometry relative="1" as="geometry">
            <Array as="points" />
            <mxPoint x="585" y="-290" as="sourcePoint" />
            <mxPoint x="569" y="-210" as="targetPoint" />
          </mxGeometry>
        </mxCell>
        <mxCell id="5QVgmq1AskSANUEn1EZR-1" value="Start" style="whiteSpace=wrap;strokeWidth=2;" vertex="1" parent="1">
          <mxGeometry x="545" y="-330" width="50" height="34" as="geometry" />
        </mxCell>
      </root>
    </mxGraphModel>
  </diagram>
</mxfile>
